# xmcd CD database file
#
# Track frame offsets:
#	150
#	21835
#	39535
#
# Disc length: 814 seconds
#
# Revision: 3
# Processed by: cddbd v1.5.2PL0 Copyright (c) Steve Scherf et al.
# Submitted via: CDex 1.70beta2
#
DISCID=1c032c03
DTITLE=中山　加奈子 - プルメリアの咲く場所へ(Single)
DYEAR=1998
DGENRE=Pop
TTITLE0=プルメリアの咲く場所へ
TTITLE1=ダーリン〜愛は生きているうちに〜
TTITLE2=プルメリアの咲く場所へ(TV-Mix)
EXTD=YEAR: 1998
EXTT0=
EXTT1=
EXTT2=
PLAYORDER=
